<?xml version="1.0" encoding="UTF-8"?>
<svg version="1.1" xmlns="http://www.w3.org/2000/svg" width="1024" height="1024">
<path d="M0 0 C337.92 0 675.84 0 1024 0 C1024 337.92 1024 675.84 1024 1024 C686.08 1024 348.16 1024 0 1024 C0 686.08 0 348.16 0 0 Z " fill="#026C76" transform="translate(0,0)"/>
<path d="M0 0 C1.14686279 0.38043457 1.14686279 0.38043457 2.31689453 0.76855469 C49.75002197 16.69566212 95.90282016 50.03951216 126 90 C126.92362263 91.18426227 127.84817138 92.36780259 128.7734375 93.55078125 C153.32453859 125.24380284 182 172.48201998 182 214 C182.70125 213.96519531 183.4025 213.93039062 184.125 213.89453125 C192.48333442 213.65604616 199.25603995 214.56574139 205.62695312 220.45581055 C212.21640892 227.86660499 212.65832689 234.94851243 212.3125 244.5625 C212.28994141 245.76197266 212.26738281 246.96144531 212.24414062 248.19726562 C212.18566309 251.13283803 212.10375749 254.06573808 212 257 C217.45640053 252.2909522 222.767817 247.4562671 228 242.5 C235.29377401 235.5908586 242.72302587 228.85152189 250.5625 222.5625 C251.35043945 221.89444336 251.35043945 221.89444336 252.15429688 221.21289062 C255.10490021 218.86753926 256.94295413 218.0061655 260.72265625 217.59765625 C264.65277333 218.08013785 266.22975611 219.22975611 269 222 C270.18041166 224.36082333 270.13328161 225.78754272 270.14717102 228.42085266 C270.15790398 229.8150946 270.15790398 229.8150946 270.16885376 231.23750305 C270.17288712 232.77183235 270.17288712 232.77183235 270.17700195 234.3371582 C270.18685875 235.94951859 270.18685875 235.94951859 270.19691467 237.5944519 C270.21667846 241.163229 270.22831662 244.73196397 270.23828125 248.30078125 C270.24235678 249.51732077 270.2464323 250.73386028 270.25063133 251.98726463 C270.27150435 258.42502041 270.28580124 264.86275479 270.29516602 271.30053711 C270.30523046 277.95890624 270.34064426 284.61689563 270.38033772 291.27515888 C270.40644855 296.38720839 270.41485291 301.49917774 270.41844749 306.61128807 C270.42332708 309.06612592 270.43497977 311.52095986 270.45348549 313.9757328 C270.4777604 317.40897892 270.4769329 320.84135305 270.4699707 324.2746582 C270.48278076 325.29147171 270.49559082 326.30828522 270.50878906 327.35591125 C270.47614819 331.76496227 270.43866441 334.28412345 268.09562683 338.10783386 C265.73140738 340.24251544 264.56606841 340.90335417 261.4375 341.4375 C253.34697627 340.40779698 247.17535049 333.55513461 241.41015625 328.2265625 C239.26834908 326.24790757 237.08856553 324.33484188 234.875 322.4375 C231.4272839 319.439787 228.22730221 316.2467062 225.0234375 312.9921875 C222.3411705 310.35134548 219.52192612 307.89328333 216.6640625 305.4453125 C215.39833536 304.34597202 214.1854566 303.1854566 213 302 C212.99383667 302.87567627 212.99383667 302.87567627 212.98754883 303.76904297 C212.70692791 326.51056188 212.70692791 326.51056188 207 333 C199.72549786 339.33672102 192.58482567 341.33343684 183.125 341.125 C181.949375 341.11146484 181.949375 341.11146484 180.75 341.09765625 C178.83319945 341.07428063 176.91655809 341.03841653 175 341 C174.90058105 341.59353271 174.80116211 342.18706543 174.69873047 342.79858398 C173.47900812 349.50444785 171.54400075 355.69852816 169.125 362.0625 C168.5367041 363.61191284 168.5367041 363.61191284 167.93652344 365.19262695 C155.40947808 397.45682555 137.49630983 427.05374418 114.1484375 452.6328125 C112.24848159 454.72621846 110.39998279 456.85195674 108.5625 459 C101.59314 466.96269407 94.03562168 474.05225388 85.73364258 480.60522461 C84.34350096 481.7236416 82.96920414 482.86174073 81.6003418 484.00610352 C75.19826684 489.33840983 68.63206543 494.21152292 61.6875 498.8125 C60.65206055 499.49900635 59.61662109 500.1855127 58.54980469 500.89282227 C48.35356175 507.56132645 37.87190077 513.51016677 27 519 C26.23461914 519.39203613 25.46923828 519.78407227 24.68066406 520.18798828 C1.80960963 531.73342445 -24.58589607 540.64400157 -50 544 C-51.09272217 544.17080078 -52.18544434 544.34160156 -53.3112793 544.51757812 C-64.29870591 546.11165271 -75.15231658 546.30678371 -86.24389648 546.26074219 C-89.29756693 546.25005228 -92.35064451 546.26068226 -95.40429688 546.2734375 C-111.76154634 546.28631976 -127.80414196 545.28561463 -143.8125 541.75 C-145.31913208 541.42358521 -145.31913208 541.42358521 -146.85620117 541.09057617 C-197.3095031 529.93457506 -244.22601712 508.25999934 -282.1171875 472.6953125 C-284.97689767 470.02159974 -287.88963065 467.41680048 -290.8125 464.8125 C-295.24016188 460.78275923 -299.17568174 456.59560934 -303 452 C-303.81984375 451.05640625 -304.6396875 450.1128125 -305.484375 449.140625 C-329.44128019 421.50863502 -347.85223503 389.48669491 -360 355 C-360.42418213 353.81978271 -360.42418213 353.81978271 -360.85693359 352.61572266 C-366.00869816 338.10951984 -369.15221148 323.1048983 -372 308 C-372.27336182 306.57059082 -372.27336182 306.57059082 -372.55224609 305.11230469 C-377.54701607 277.80756217 -376.35604659 248.28809598 -372 221 C-371.86609863 220.11747559 -371.73219727 219.23495117 -371.59423828 218.32568359 C-367.80613241 193.92109849 -360.30626652 170.4026936 -350 148 C-349.59523438 147.11876465 -349.19046875 146.2375293 -348.7734375 145.32958984 C-336.75471841 119.53296011 -320.27594474 96.32445333 -301.12109375 75.34375 C-299.18168497 73.20075688 -297.30670701 71.01655362 -295.4375 68.8125 C-292.60224047 65.56295597 -289.57041246 62.75188747 -286.28125 59.96875 C-284.07543368 58.0651003 -281.94640279 56.09327003 -279.82250977 54.09912109 C-205.16317581 -15.6955869 -95.04123611 -32.04085782 0 0 Z " fill="#FD9030" transform="translate(604,163)"/>
<path d="M0 0 C1.20140625 0.42925781 2.4028125 0.85851562 3.640625 1.30078125 C24.13378795 9.04022045 41.94476379 20.19364056 57.96484375 35.1171875 C59.65909563 36.68461438 61.37699061 38.13489207 63.1875 39.5625 C66.85852415 42.74405427 69.88203801 46.28539096 73 50 C73.66773438 50.75667969 74.33546875 51.51335937 75.0234375 52.29296875 C92.26959904 72.37198354 102.67249729 95.81014333 110 121 C110.75152344 120.05769531 111.50304687 119.11539063 112.27734375 118.14453125 C115.96170764 113.7282261 120.28177268 111.11769403 126 110 C127.48169287 109.90837206 128.96684282 109.86531098 130.45135498 109.85955811 C131.33719269 109.85384796 132.2230304 109.84813782 133.13571167 109.84225464 C134.09994049 109.84113678 135.06416931 109.84001892 136.05761719 109.83886719 C137.59003555 109.83141983 137.59003555 109.83141983 139.15341187 109.82382202 C142.53457309 109.8092124 145.91568739 109.80240009 149.296875 109.796875 C151.64853924 109.79112223 154.00020346 109.78536451 156.35186768 109.77960205 C161.28471088 109.76909525 166.2175378 109.76325058 171.15039062 109.75976562 C177.46307039 109.75428393 183.77553414 109.73026126 190.08814621 109.70179367 C194.94725162 109.68314494 199.80630525 109.67796047 204.66544342 109.67642975 C206.99219187 109.67340737 209.31893951 109.6653929 211.64565277 109.65224457 C214.90553589 109.635139 218.16489456 109.63707566 221.42480469 109.64355469 C222.38093658 109.6343399 223.33706848 109.62512512 224.32217407 109.6156311 C231.99575857 109.66326744 238.76305915 111.03449337 244.62695312 116.45581055 C251.21640892 123.86660499 251.65832689 130.94851243 251.3125 140.5625 C251.28994141 141.76197266 251.26738281 142.96144531 251.24414062 144.19726562 C251.18566309 147.13283803 251.10375749 150.06573808 251 153 C256.45640053 148.2909522 261.767817 143.4562671 267 138.5 C274.29377401 131.5908586 281.72302587 124.85152189 289.5625 118.5625 C290.35043945 117.89444336 290.35043945 117.89444336 291.15429688 117.21289062 C294.10490021 114.86753926 295.94295413 114.0061655 299.72265625 113.59765625 C303.65277333 114.08013785 305.22975611 115.22975611 308 118 C309.18041166 120.36082333 309.13328161 121.78754272 309.14717102 124.42085266 C309.15790398 125.8150946 309.15790398 125.8150946 309.16885376 127.23750305 C309.17288712 128.77183235 309.17288712 128.77183235 309.17700195 130.3371582 C309.18685875 131.94951859 309.18685875 131.94951859 309.19691467 133.5944519 C309.21667846 137.163229 309.22831662 140.73196397 309.23828125 144.30078125 C309.24235678 145.51732077 309.2464323 146.73386028 309.25063133 147.98726463 C309.27150435 154.42502041 309.28580124 160.86275479 309.29516602 167.30053711 C309.30523046 173.95890624 309.34064426 180.61689563 309.38033772 187.27515888 C309.40644855 192.38720839 309.41485291 197.49917774 309.41844749 202.61128807 C309.42332708 205.06612592 309.43497977 207.52095986 309.45348549 209.9757328 C309.4777604 213.40897892 309.4769329 216.84135305 309.4699707 220.2746582 C309.48278076 221.29147171 309.49559082 222.30828522 309.50878906 223.35591125 C309.47614819 227.76496227 309.43866441 230.28412345 307.09562683 234.10783386 C304.73140738 236.24251544 303.56606841 236.90335417 300.4375 237.4375 C292.34697627 236.40779698 286.17535049 229.55513461 280.41015625 224.2265625 C278.26834908 222.24790757 276.08856553 220.33484188 273.875 218.4375 C270.4272839 215.439787 267.22730221 212.2467062 264.0234375 208.9921875 C261.3411705 206.35134548 258.52192612 203.89328333 255.6640625 201.4453125 C254.39833536 200.34597202 253.1854566 199.1854566 252 198 C251.99589111 198.58378418 251.99178223 199.16756836 251.98754883 199.76904297 C251.70692791 222.51056188 251.70692791 222.51056188 246 229 C238.27427241 235.72977744 230.72715961 237.29944238 220.74707031 237.30639648 C219.7283786 237.31472 218.70968689 237.32304352 217.66012573 237.33161926 C214.29941968 237.35567285 210.93890795 237.36448617 207.578125 237.37109375 C205.23410994 237.38006417 202.89009545 237.38918609 200.54608154 237.39845276 C195.63357148 237.41493311 190.72112948 237.42264105 185.80859375 237.42553711 C179.52961784 237.43091729 173.25128634 237.46858739 166.97249222 237.51428127 C162.13044936 237.54410016 157.2885607 237.55126174 152.44643402 237.55226326 C150.13248496 237.55645654 147.81853506 237.56885475 145.50467682 237.58978081 C142.25947907 237.6167918 139.01576251 237.61183975 135.77050781 237.59936523 C134.82470856 237.61419952 133.8789093 237.62903381 132.90444946 237.64431763 C124.76054916 237.55567075 118.52625375 234.821003 112.1875 229.75 C109.27630346 226.09021007 107.12672591 222.15390295 105 218 C104.5875 218.98097656 104.175 219.96195313 103.75 220.97265625 C85.01360025 265.00457131 52.05904255 300.02168676 7.38061523 318.45556641 C-35.42122724 335.11400127 -83.17112844 332.50934926 -125.09765625 314.90234375 C-164.74755604 297.44455205 -196.2986356 264.44856666 -212.6640625 224.484375 C-229.94790512 179.40487905 -228.84505569 133.00230675 -209.32177734 88.85009766 C-200.98639891 70.87684168 -188.67879842 55.20088996 -175 41 C-174.31035156 40.2471875 -173.62070312 39.494375 -172.91015625 38.71875 C-129.88020716 -6.87152235 -58.13327169 -21.26979147 0 0 Z " fill="#D45710" transform="translate(565,267)"/>
<path d="M0 0 C5.36743374 0.39816088 10.4906776 2.23844335 15.59765625 3.83203125 C36.97053018 10.25510018 58.70130287 13.9026004 81.03515625 14.51953125 C82.27990723 14.56037842 82.27990723 14.56037842 83.54980469 14.60205078 C112.76962478 15.45326943 141.26035991 11.0918527 169.12475586 2.39916992 C173.95980819 0.92801061 177.97876657 0.22729367 183.03515625 0.51953125 C186.35955803 7.11958991 187.44813857 13.97192938 188.72265625 21.20703125 C188.94759766 22.42970703 189.17253906 23.65238281 189.40429688 24.91210938 C191.03515625 33.93884166 191.03515625 33.93884166 191.03515625 38.51953125 C191.59875351 38.5106488 192.16235077 38.50176636 192.74302673 38.49261475 C198.69828977 38.40296458 204.65335622 38.34331879 210.60913086 38.29980469 C212.82112433 38.27989562 215.03306665 38.25275836 217.24487305 38.21777344 C247.09274835 37.75805531 271.75793553 45.12111227 294.03515625 65.51953125 C308.78648014 80.09731015 317.54204534 97.46962771 322.03515625 117.51953125 C322.22722656 118.33679688 322.41929687 119.1540625 322.6171875 119.99609375 C324.36813184 130.56721563 323.73528797 139.87985151 317.4921875 148.69921875 C312.81377641 154.54455618 307.3957748 158.04465571 300.03515625 159.51953125 C297.69025626 159.61436623 295.34279963 159.65045234 292.99598503 159.65375233 C292.2835603 159.65610456 291.57113556 159.65845679 290.8371222 159.6608803 C288.43761335 159.66756446 286.03815873 159.66711225 283.63864136 159.66670227 C281.90577427 159.67000126 280.17290795 159.6737269 278.44004261 159.67784375 C273.66832242 159.68786788 268.8966148 159.69158121 264.12488556 159.69423306 C258.9822435 159.69813487 253.83961141 159.70771327 248.69697571 159.71644592 C236.27283046 159.73621351 223.84868439 159.74627678 211.42452735 159.75517371 C205.57515356 159.75955601 199.72578069 159.76492296 193.87640762 159.77016258 C174.43427404 159.78717493 154.99214103 159.80166951 135.55000114 159.80891132 C130.50403721 159.81082125 125.45807329 159.81274158 120.41210938 159.81469727 C119.15794567 159.81518101 117.90378196 159.81566475 116.61161329 159.81616315 C96.29106915 159.82446498 75.97058385 159.84980448 55.65006541 159.88227794 C34.79212041 159.91533878 13.93420532 159.93335919 -6.92376602 159.93655556 C-18.63665469 159.93872153 -30.34945755 159.94748292 -42.06232071 159.97301674 C-52.03669734 159.99471035 -62.01096732 160.00278071 -71.98536487 159.99304996 C-77.07418451 159.98850145 -82.16278403 159.99042366 -87.25157356 160.0098114 C-91.91266149 160.02741624 -96.57336828 160.02646704 -101.2344601 160.01091411 C-102.91822661 160.00853398 -104.60201933 160.01288259 -106.28574575 160.02474276 C-117.3764648 160.09800968 -127.88127298 159.54469859 -136.359375 151.44921875 C-142.74899726 143.76923481 -145.08048022 135.79725857 -144.48828125 125.875 C-141.84578493 99.29781925 -128.10502486 76.11670705 -107.94628906 59.10668945 C-91.47927534 45.79515679 -71.57385074 38.31924171 -50.44140625 38.421875 C-49.34009369 38.42328995 -48.23878113 38.4247049 -47.10409546 38.42616272 C-43.59931683 38.43174373 -40.09460295 38.44429279 -36.58984375 38.45703125 C-34.20833426 38.4620487 -31.82682376 38.46661118 -29.4453125 38.47070312 C-23.61846763 38.48170694 -17.79166032 38.49842618 -11.96484375 38.51953125 C-11.84294678 37.47112061 -11.7210498 36.42270996 -11.59545898 35.3425293 C-10.71415485 27.92690944 -9.80922019 20.5955035 -8.02734375 13.33203125 C-7.79241211 12.28692383 -7.79241211 12.28692383 -7.55273438 11.22070312 C-5.09072906 0.89205134 -5.09072906 0.89205134 0 0 Z " fill="#FD9030" transform="translate(419.96484375,716.48046875)"/>
<path d="M0 0 C20.08703337 15.67897217 33.02022651 37.89114488 36.4375 63.24609375 C38.59985619 86.62657007 33.49884355 111.35045911 18.6875 130.0625 C17.38363331 131.59074145 16.07189027 133.11232145 14.75 134.625 C14.25886719 135.24761719 13.76773438 135.87023437 13.26171875 136.51171875 C6.68433723 144.75660545 -2.10844674 150.55987981 -11.25 155.625 C-11.87003906 155.98207031 -12.49007812 156.33914063 -13.12890625 156.70703125 C-33.49489276 167.74777124 -59.09895289 170.12426327 -81.25 163.625 C-94.12103251 159.35765155 -105.84864009 153.36736164 -116.25 144.625 C-116.98992187 144.03074219 -117.72984375 143.43648437 -118.4921875 142.82421875 C-136.83584005 127.49552639 -147.03721859 104.0750859 -149.25 80.625 C-150.78839393 58.31828807 -144.1420804 34.72795404 -129.640625 17.38671875 C-126.9619926 14.34099326 -124.13605782 11.47457675 -121.25 8.625 C-120.4353125 7.81160156 -119.620625 6.99820312 -118.78125 6.16015625 C-105.55634642 -6.39920835 -89.08725233 -14.07795469 -71.25 -17.375 C-70.31414062 -17.560625 -69.37828125 -17.74625 -68.4140625 -17.9375 C-43.96398886 -21.31825092 -19.80327365 -14.35237257 0 0 Z " fill="#CF560F" transform="translate(565.25,353.375)"/>
<path d="M0 0 C0.68046387 0.16097168 1.36092773 0.32194336 2.06201172 0.48779297 C27.13744556 6.58532313 50.35267664 20.20408832 67 40 C67.77472656 40.87527344 68.54945313 41.75054687 69.34765625 42.65234375 C89.52226369 65.88276499 99.22450821 94.79176556 99.25 125.375 C99.25067474 126.09719727 99.25134949 126.81939453 99.25204468 127.56347656 C99.2364956 138.01245525 98.86021519 147.86238247 96 158 C95.83371094 158.63147949 95.66742187 159.26295898 95.49609375 159.91357422 C89.67104899 181.88154393 78.70558519 199.7110645 63 216 C61.83210938 217.28003906 61.83210938 217.28003906 60.640625 218.5859375 C40.49156253 240.01967174 9.65007717 252.83883281 -19.52148438 254.10986328 C-55.50870859 254.91182577 -89.02998539 245.5742447 -115.56811523 220.32348633 C-116.58936601 219.33474221 -117.6075058 218.34277177 -118.62207031 217.34716797 C-119.83292033 216.16334968 -121.06707167 215.00346358 -122.3046875 213.84765625 C-144.19007266 193.02673535 -156.24609705 161.04012015 -157.22265625 131.31640625 C-157.98059785 94.49454585 -145.42886425 63.42241645 -121 36 C-120.40574219 35.33226562 -119.81148438 34.66453125 -119.19921875 33.9765625 C-89.68747425 2.78052489 -41.23218726 -10.11962285 0 0 Z M-100.68164062 66.44335938 C-111.58139119 79.31313893 -117.48769655 94.71732145 -121 111 C-121.19464844 111.83015625 -121.38929688 112.6603125 -121.58984375 113.515625 C-125.32256442 136.12524734 -117.67413775 161.58501351 -104.59082031 179.98144531 C-89.56597464 199.57513221 -67.5438364 213.23520491 -43.1484375 217.53125 C-17.77038659 220.8203052 7.26484905 215.11773902 27.75 199.5 C29.17254633 198.34050981 30.58948713 197.17409923 32 196 C32.65355469 195.49210938 33.30710937 194.98421875 33.98046875 194.4609375 C50.559316 181.02578384 61.24010282 158.8713229 63.8125 137.875 C63.90285708 136.25131073 63.96276851 134.62577522 64 133 C64.05027344 131.89785156 64.10054687 130.79570312 64.15234375 129.66015625 C64.79807559 105.04485852 56.80483252 81.32347185 40.0625 63.0625 C22.42157325 44.55116926 -0.51397726 33.42309241 -26.24365234 32.78027344 C-55.47310158 32.39867187 -80.98911325 44.76168782 -100.68164062 66.44335938 Z " fill="#FD9030" transform="translate(538,302)"/>
<path d="M0 0 C5.43097582 0.1613439 10.51537425 2.03914714 15.66015625 3.64453125 C37.03303018 10.06760018 58.76380287 13.7151004 81.09765625 14.33203125 C82.34240723 14.37287842 82.34240723 14.37287842 83.61230469 14.41455078 C112.83212478 15.26576943 141.32285991 10.9043527 169.18725586 2.21166992 C174.02230819 0.74051061 178.04126657 0.03979367 183.09765625 0.33203125 C190.6302506 15.551848 194.70019912 39.68669066 189.59765625 56.20703125 C184.59415078 67.85855099 175.43836916 75.80885277 163.91015625 80.70703125 C156.17670801 83.73717281 148.19936682 83.48503414 140.01879883 83.49316406 C138.81785583 83.49812897 137.61691284 83.50309387 136.37957764 83.50820923 C133.10035959 83.52026907 129.82117709 83.52776327 126.54194093 83.53221989 C124.48730021 83.53516325 122.43266492 83.53927038 120.37802696 83.54372406 C113.93235134 83.55737945 107.4866883 83.56705543 101.04099923 83.57092595 C93.63235266 83.57540078 86.22389112 83.59293005 78.81530076 83.62192655 C73.06724518 83.64363308 67.31924132 83.653635 61.57114524 83.65496707 C58.14800764 83.65600878 54.72504443 83.66177983 51.30195045 83.67978668 C47.47565525 83.69694409 43.64980496 83.69494295 39.82348633 83.68847656 C38.15143379 83.70229874 38.15143379 83.70229874 36.44560242 83.71640015 C26.91441659 83.66623649 17.51399215 82.24722175 9.16015625 77.39453125 C8.30550781 76.91113281 7.45085937 76.42773438 6.5703125 75.9296875 C-1.25307251 70.87476733 -8.6864981 62.87594366 -11.5 53.7734375 C-14.19186753 37.43928987 -10.75999944 17.68423876 -4.90234375 2.33203125 C-2.90234375 0.33203125 -2.90234375 0.33203125 0 0 Z " fill="#D0560F" transform="translate(419.90234375,716.66796875)"/>
<path d="M0 0 C2.75329021 1.79562405 4.52627461 3.05254922 6 6 C6.10044495 7.47100853 6.13939422 8.94643928 6.14717102 10.42085266 C6.15432632 11.35034729 6.16148163 12.27984192 6.16885376 13.23750305 C6.17154266 14.26038925 6.17423157 15.28327545 6.17700195 16.3371582 C6.18685875 17.94951859 6.18685875 17.94951859 6.19691467 19.5944519 C6.21667846 23.163229 6.22831662 26.73196397 6.23828125 30.30078125 C6.24235678 31.51732077 6.2464323 32.73386028 6.25063133 33.98726463 C6.27150435 40.42502041 6.28580124 46.86275479 6.29516602 53.30053711 C6.30523046 59.95890624 6.34064426 66.61689563 6.38033772 73.27515888 C6.40644855 78.38720839 6.41485291 83.49917774 6.41844749 88.61128807 C6.42332708 91.06612592 6.43497977 93.52095986 6.45348549 95.9757328 C6.4777604 99.40897892 6.4769329 102.84135305 6.4699707 106.2746582 C6.48278076 107.29147171 6.49559082 108.30828522 6.50878906 109.35591125 C6.47614819 113.76496227 6.43866441 116.28412345 4.09562683 120.10783386 C1.73140738 122.24251544 0.56606841 122.90335417 -2.5625 123.4375 C-10.65302373 122.40779698 -16.82464951 115.55513461 -22.58984375 110.2265625 C-24.73165092 108.24790757 -26.91143447 106.33484188 -29.125 104.4375 C-32.57410897 101.43857593 -35.77526041 98.24406487 -38.98046875 94.98828125 C-41.62898478 92.38074806 -44.4127748 89.95582517 -47.23828125 87.54296875 C-47.81964844 87.03378906 -48.40101563 86.52460938 -49 86 C-49.78253899 85.34182281 -49.78253899 85.34182281 -50.58088684 84.67034912 C-52.36566503 82.56959862 -52.40426002 81.46203722 -52.4675293 78.73144531 C-52.49312424 77.87335266 -52.51871918 77.01526001 -52.54508972 76.13116455 C-52.5547023 75.2061615 -52.56431488 74.28115845 -52.57421875 73.328125 C-52.5889473 72.37234558 -52.60367584 71.41656616 -52.61885071 70.43182373 C-52.6428112 68.40775554 -52.6582257 66.38357094 -52.66577148 64.359375 C-52.68733227 61.27400234 -52.7674706 58.19364898 -52.84960938 55.109375 C-52.86560964 53.14065116 -52.87809249 51.17189496 -52.88671875 49.203125 C-52.91859787 48.28621887 -52.95047699 47.36931274 -52.98332214 46.42462158 C-52.9427491 42.53347955 -52.83280533 40.00818548 -50.29971313 36.94165039 C-48.27246406 35.16305753 -46.19165149 33.56923698 -44 32 C-42.65740533 30.77045367 -41.32150538 29.53343535 -40 28.28125 C-39.34 27.65863281 -38.68 27.03601563 -38 26.39453125 C-37.34 25.76933594 -36.68 25.14414062 -36 24.5 C-28.70622599 17.5908586 -21.27697413 10.85152189 -13.4375 4.5625 C-12.64956055 3.89444336 -12.64956055 3.89444336 -11.84570312 3.21289062 C-7.83718533 0.02663289 -5.05349463 -0.62039326 0 0 Z " fill="#FC902F" transform="translate(868,381)"/>
<path d="M0 0 C5.5947863 3.50635919 9.96077061 8.98553652 11.98828125 15.24609375 C13.26205317 22.47307336 10.98519234 28.26119023 6.98828125 34.24609375 C3.19912839 38.49153204 -1.24314228 40.95917533 -6.9140625 41.546875 C-17.12072739 41.58628297 -17.12072739 41.58628297 -22.01171875 38.24609375 C-22.87796875 37.68921875 -23.74421875 37.13234375 -24.63671875 36.55859375 C-29.68864063 31.63961718 -31.28384713 26.83320083 -31.63671875 19.80859375 C-31.38554117 11.78951684 -28.11299242 7.19608578 -22.44921875 1.80859375 C-15.4556563 -2.6744591 -7.72428535 -3.23522172 0 0 Z " fill="#FD8F30" transform="translate(491.01171875,378.75390625)"/>
<path d="M0 0 C0.52205784 0.21193664 1.04411568 0.42387328 1.58199346 0.64223224 C10.0294686 3.64684689 18.39137642 3.42667191 27.22329712 3.39872742 C28.97259784 3.40417188 30.72189489 3.41092552 32.47118604 3.41886932 C37.26009986 3.43685232 42.04885827 3.43634275 46.83779788 3.43273985 C52.00879327 3.43211504 57.17973695 3.44874506 62.35070801 3.46325684 C71.30380259 3.48603172 80.25685829 3.49792604 89.20998001 3.50238609 C102.15460882 3.50885033 115.09916738 3.53179259 128.04376785 3.55872939 C149.04658405 3.60198849 170.04939728 3.63196027 191.05224609 3.65356445 C211.45200047 3.67457676 231.85173064 3.70185407 252.25146484 3.73754883 C253.50934974 3.73974765 254.76723464 3.74194648 256.06323726 3.74421193 C262.37380917 3.75528165 268.68438086 3.76647445 274.99495244 3.77772844 C327.32994688 3.87090114 379.66495504 3.94250488 432 4 C428.32523315 6.44984457 426.56168545 6.25054718 422.17758083 6.25168228 C421.47644019 6.25458916 420.77529954 6.25749604 420.05291221 6.26049101 C417.68569664 6.26783371 415.31873683 6.26082788 412.95152283 6.25396729 C411.24426708 6.25627006 409.53701233 6.25944535 407.82975966 6.26342177 C403.12416396 6.2718042 398.41864893 6.26762886 393.71305287 6.26144934 C388.64333165 6.25693965 383.57362468 6.26390137 378.50390625 6.26940918 C368.56474512 6.27832208 358.62561412 6.27637236 348.68645179 6.2705839 C340.60737222 6.26607308 332.52830112 6.26545199 324.44922066 6.26763153 C323.30073944 6.267938 322.15225823 6.26824446 320.96897455 6.26856022 C318.63600146 6.26919965 316.30302837 6.26984808 313.97005529 6.2705054 C292.06937512 6.27621471 270.16871166 6.26964232 248.26803423 6.25890467 C229.4775906 6.24997695 210.68717169 6.25151361 191.89672852 6.26074219 C170.08699831 6.2714486 148.2772828 6.27565653 126.46755034 6.26951766 C124.14086346 6.26888056 121.81417658 6.26825182 119.4874897 6.26763153 C118.34267602 6.26732298 117.19786235 6.26701443 116.01835735 6.26669653 C107.95287223 6.26497008 99.88739644 6.26788379 91.82191277 6.27259064 C81.98660026 6.27820394 72.15131968 6.27667388 62.31601083 6.26602915 C57.29814801 6.26077724 52.28033838 6.25870743 47.26247597 6.26532745 C42.66620149 6.27129943 38.07002936 6.26799113 33.47376413 6.25737235 C31.81352639 6.25514352 30.15327995 6.25626298 28.49304783 6.26112393 C8.06073721 6.31634379 8.06073721 6.31634379 0 2 C0 1.34 0 0.68 0 0 Z " fill="#386A73" transform="translate(289,872)"/>
<path d="M0 0 C0.33 0 0.66 0 1 0 C1 1.65 1 3.3 1 5 C-15.5 5 -32 5 -49 5 C-49 4.67 -49 4.34 -49 4 C-43.7027207 2.90492581 -38.6066883 2.87106359 -33.2265625 2.90234375 C-32.3028183 2.9037587 -31.3790741 2.90517365 -30.42733765 2.90663147 C-27.49319138 2.91220391 -24.55912299 2.92475131 -21.625 2.9375 C-19.62890736 2.94251856 -17.63281351 2.94708085 -15.63671875 2.95117188 C-10.75778275 2.96216431 -5.87890455 2.9794099 -1 3 C-0.67 2.01 -0.34 1.02 0 0 Z " fill="#126979" transform="translate(407,750)"/>
<path d="M0 0 C0.33 0.66 0.66 1.32 1 2 C3.31 2 5.62 2 8 2 C8 2.66 8 3.32 8 4 C6.25360243 4.39143394 4.50264082 4.76254287 2.75 5.125 C1.77546875 5.33382812 0.8009375 5.54265625 -0.203125 5.7578125 C-3.23442766 6.0202996 -4.48017346 5.61988849 -7 4 C-4.69 3.34 -2.38 2.68 0 2 C0 1.34 0 0.68 0 0 Z " fill="#0B6F7B" transform="translate(563,721)"/>
<path d="M0 0 C1 2 1 2 0.42675781 3.72412109 C0.10545898 4.40039551 -0.21583984 5.07666992 -0.546875 5.7734375 C-0.8975 6.5159375 -1.248125 7.2584375 -1.609375 8.0234375 C-1.98578125 8.79945313 -2.3621875 9.57546875 -2.75 10.375 C-3.1109375 11.14328125 -3.471875 11.9115625 -3.84375 12.703125 C-5.61252572 16.40730024 -7.33168332 19.841929 -10 23 C-10.66 22.67 -11.32 22.34 -12 22 C-8.04 14.74 -4.08 7.48 0 0 Z " fill="#0E6581" transform="translate(764,546)"/>
<path d="M0 0 C0.99 0.33 1.98 0.66 3 1 C2.34 2.32 1.68 3.64 1 5 C1.556875 5.2475 2.11375 5.495 2.6875 5.75 C5.39971127 7.21606015 7.63587365 9.02989471 10 11 C9.67 11.66 9.34 12.32 9 13 C5.04 9.7 1.08 6.4 -3 3 C-2.01 2.01 -1.02 1.02 0 0 Z " fill="#F1942A" transform="translate(333,640)"/>
<path d="M0 0 C4.29 0.33 8.58 0.66 13 1 C13 1.33 13 1.66 13 2 C9.7 2.33 6.4 2.66 3 3 C2.67 3.99 2.34 4.98 2 6 C1.34 6 0.68 6 0 6 C0 6.66 0 7.32 0 8 C-0.66 7.67 -1.32 7.34 -2 7 C-1.34 4.69 -0.68 2.38 0 0 Z " fill="#0C6B7C" transform="translate(779,504)"/>
<path d="M0 0 C0.66 0 1.32 0 2 0 C4.15305957 3.85756507 5.39253254 6.55129785 5 11 C4.01 11.33 3.02 11.66 2 12 C1.34 8.04 0.68 4.08 0 0 Z " fill="#166A79" transform="translate(740,827)"/>
<path d="M0 0 C0.66386719 0.20496094 1.32773437 0.40992188 2.01171875 0.62109375 C2.89472656 0.89050781 3.77773438 1.15992188 4.6875 1.4375 C5.55761719 1.70433594 6.42773438 1.97117187 7.32421875 2.24609375 C9.87025921 2.96344529 12.4003423 3.517541 15 4 C15 4.33 15 4.66 15 5 C9.01006953 5.3152595 5.36439644 4.68219822 0 2 C0 1.34 0 0.68 0 0 Z " fill="#096382" transform="translate(289,872)"/>
<path d="M0 0 C3.2826932 1.49076434 5.93077441 3.38620321 8.75 5.625 C9.94882812 6.57246094 9.94882812 6.57246094 11.171875 7.5390625 C11.77515625 8.02117188 12.3784375 8.50328125 13 9 C12.01 9.33 11.02 9.66 10 10 C8.02734375 8.671875 8.02734375 8.671875 5.9375 6.75 C5.24527344 6.12609375 4.55304688 5.5021875 3.83984375 4.859375 C2 3 2 3 0 0 Z " fill="#0A6481" transform="translate(329,643)"/>
<path d="M0 0 C3.11920338 0.33420036 3.95474254 0.94788534 6.0625 3.375 C6.701875 4.24125 7.34125 5.1075 8 6 C8.98230498 7.0173873 9.97469597 8.02596117 11 9 C8 9 8 9 5.95703125 7.28515625 C5.24933594 6.55167969 4.54164063 5.81820313 3.8125 5.0625 C3.09707031 4.33160156 2.38164063 3.60070312 1.64453125 2.84765625 C0 1 0 1 0 0 Z " fill="#E9952A" transform="translate(816,463)"/>
<path d="M0 0 C2.97526665 2.55022856 4.50122302 5.40293526 6 9 C5.67 9.99 5.34 10.98 5 12 C4.54625 11.21625 4.0925 10.4325 3.625 9.625 C2.11571258 6.96301969 2.11571258 6.96301969 0 5 C-0.125 2.375 -0.125 2.375 0 0 Z " fill="#FA9724" transform="translate(760,302)"/>
<path d="M0 0 C0.33 0 0.66 0 1 0 C2.25 6.625 2.25 6.625 0 10 C-0.38922918 8.71254964 -0.76098036 7.41980403 -1.125 6.125 C-1.43824219 5.04605469 -1.43824219 5.04605469 -1.7578125 3.9453125 C-1.83773437 3.30335938 -1.91765625 2.66140625 -2 2 C-1.34 1.34 -0.68 0.68 0 0 Z " fill="#146B77" transform="translate(236,353)"/>
<path d="M0 0 C0.33 0.99 0.66 1.98 1 3 C-0.65 4.32 -2.3 5.64 -4 7 C-4.66 6.67 -5.32 6.34 -6 6 C-4.02 4.02 -2.04 2.04 0 0 Z " fill="#E6922D" transform="translate(830,407)"/>
</svg>
