<svg aria-hidden="true" style="position: absolute; width: 0; height: 0; overflow: hidden;" version="1.1" xmlns="http://www.w3.org/2000/svg" xmlns:xlink="http://www.w3.org/1999/xlink">
<defs>
<symbol id="icon-global" viewBox="0 0 32 32">
<path fill="#1c274c" style="fill: var(--color1, #1c274c)" d="M2.704 15c0.511-6.897 6.269-12.333 13.296-12.333-1.108 0-2.094 0.486-2.906 1.228-0.807 0.739-1.49 1.77-2.041 2.989-0.555 1.226-0.986 2.661-1.278 4.217-0.234 1.248-0.376 2.563-0.424 3.899h-6.647zM2.704 17h6.647c0.047 1.335 0.19 2.651 0.424 3.899 0.292 1.557 0.723 2.991 1.278 4.217 0.552 1.219 1.234 2.251 2.041 2.989 0.811 0.743 1.798 1.228 2.906 1.228-7.027 0-12.785-5.437-13.296-12.333z"></path>
<path fill="#1c274c" style="fill: var(--color1, #1c274c)" d="M16 4.527c-0.367 0-0.84 0.156-1.391 0.66-0.555 0.508-1.11 1.304-1.601 2.388-0.488 1.077-0.883 2.377-1.156 3.83-0.215 1.144-0.348 2.357-0.394 3.594h9.085c-0.047-1.237-0.18-2.45-0.394-3.594-0.272-1.453-0.668-2.753-1.156-3.83-0.491-1.084-1.046-1.88-1.601-2.388-0.551-0.504-1.025-0.66-1.391-0.66z"></path>
<path fill="#1c274c" style="fill: var(--color1, #1c274c)" d="M11.852 20.594c0.272 1.453 0.668 2.753 1.156 3.83 0.491 1.084 1.046 1.88 1.601 2.388 0.551 0.504 1.025 0.66 1.391 0.66s0.84-0.156 1.391-0.66c0.555-0.508 1.11-1.304 1.601-2.388 0.488-1.077 0.883-2.377 1.156-3.83 0.215-1.144 0.348-2.357 0.394-3.594h-9.085c0.047 1.237 0.18 2.45 0.394 3.594z"></path>
<path fill="#1c274c" style="fill: var(--color1, #1c274c)" d="M16 2.667c1.108 0 2.094 0.486 2.906 1.228 0.807 0.739 1.49 1.77 2.041 2.989 0.555 1.226 0.986 2.661 1.278 4.217 0.234 1.248 0.376 2.563 0.424 3.899h6.647c-0.511-6.897-6.269-12.333-13.296-12.333z"></path>
<path fill="#1c274c" style="fill: var(--color1, #1c274c)" d="M22.225 20.899c-0.292 1.557-0.723 2.991-1.278 4.217-0.552 1.219-1.234 2.251-2.041 2.989-0.811 0.743-1.798 1.228-2.906 1.228 7.027 0 12.785-5.437 13.296-12.333h-6.647c-0.047 1.335-0.19 2.651-0.424 3.899z"></path>
</symbol>
<symbol id="icon-secure" viewBox="0 0 32 32">
<path fill="#2ca9bc" style="fill: var(--color2, #2ca9bc)" d="M16 28l1.173-0.507c4.926-2.152 8.398-6.796 8.837-12.295l0.003-0.051 0.573-7.36c0-0.012 0.001-0.025 0.001-0.039 0-0.623-0.427-1.146-1.005-1.293l-0.009-0.002-9.573-2.453-9.573 2.4c-0.587 0.148-1.014 0.672-1.014 1.295 0 0.014 0 0.027 0.001 0.041l-0-0.002 0.573 7.36c0.442 5.55 3.914 10.194 8.746 12.31l0.094 0.037z"></path>
</symbol>
<symbol id="icon-female" viewBox="0 0 32 32">
<path d="M16 23.8c-3.7 0-6.6-3-6.6-6.6v-3.5c0-3.7 2.9-6.7 6.6-6.7s6.6 3 6.6 6.6v3.5c0 3.7-2.9 6.7-6.6 6.7zM16 8.1c-3.1 0-5.6 2.5-5.6 5.6v3.5c0 3.1 2.5 5.6 5.6 5.6s5.6-2.5 5.6-5.6v-3.5c0-3.1-2.5-5.6-5.6-5.6z"></path>
<path d="M9.6 18.7c-0.8 0-1.6-0.7-2-1.7-0.4-1.2-0.1-2.5 0.8-2.8 0.5-0.2 1.2 0 1.7 0.5l-0.7 0.8c-0.2-0.2-0.4-0.3-0.6-0.2-0.3 0.1-0.4 0.8-0.2 1.4 0.2 0.7 0.8 1.1 1.1 1l0.4 1c-0.2 0-0.4 0-0.5 0z"></path>
<path d="M22.4 18.7c-0.2 0-0.3 0-0.5-0.1l0.4-1c0.3 0.1 0.8-0.3 1.1-1 0.2-0.7 0.1-1.3-0.2-1.4-0.2-0.1-0.4 0-0.6 0.2l-0.7-0.8c0.5-0.5 1.1-0.7 1.7-0.5 0.9 0.3 1.3 1.6 0.8 2.8-0.4 1.2-1.2 1.8-2 1.8z"></path>
<path d="M16 30.2c-4 0-7.1-1.7-7.1-4 0-1.3 1-2.4 2.8-3.2 0.7-0.3 1.5-0.1 1.9 0.5l2.4 2.9 2.4-3c0.5-0.6 1.3-0.8 1.9-0.4 0 0 0.1 0 0.1 0 1.7 0.7 2.7 1.9 2.7 3.1 0 2.4-3.1 4.1-7.1 4.1zM12.4 24c-0.1 0-0.1 0-0.2 0-1.4 0.6-2.2 1.4-2.2 2.2 0 1.4 2.4 2.9 6 2.9s6-1.5 6-2.9c0-0.8-0.8-1.6-2-2.1 0 0-0.1 0-0.1-0.1-0.2-0.1-0.5 0-0.6 0.1v0l-3.2 4-3.2-3.9c-0.2-0.1-0.4-0.2-0.5-0.2z"></path>
<path d="M13.6 19.4c0.3-0.2 0.6-0.4 0.9-0.6 0.1-0.1 0.2-0.1 0.3-0.2 0.1 0 0.2-0.1 0.3-0.1 0.2 0 0.4 0 0.5 0.2 0.1 0.1 0.1 0.1 0.2 0 0.2-0.1 0.4-0.1 0.6 0s0.3 0.3 0.5 0.4c0.2 0.3 0.4 0.6 0.6 0.9 0 0 0 0 0 0-0.1 0.1-0.3 0.2-0.4 0.3-0.2 0.1-0.3 0.2-0.5 0.3-0.8 0.6-1.9 0.4-2.4-0.5-0.2-0.1-0.4-0.4-0.6-0.7 0 0 0 0 0 0z"></path>
<path d="M14.1 17.7c-0.2 0-0.4-0.1-0.5-0.3-0.1-0.1-0.2-0.2-0.4-0.2s-0.3 0.1-0.4 0.2c-0.1 0.3-0.5 0.4-0.7 0.2-0.3-0.1-0.4-0.5-0.2-0.7 0.3-0.5 0.8-0.8 1.3-0.8 0.6 0 1.1 0.3 1.3 0.8 0.1 0.3 0 0.6-0.2 0.7 0 0.1-0.1 0.1-0.2 0.1z"></path>
<path d="M19.6 17.7c-0.2 0-0.4-0.1-0.5-0.3-0.1-0.1-0.2-0.2-0.4-0.2s-0.3 0.1-0.4 0.2c-0.1 0.3-0.5 0.4-0.7 0.2-0.3-0.1-0.4-0.5-0.2-0.7 0.3-0.5 0.8-0.8 1.3-0.8 0.6 0 1.1 0.3 1.3 0.8 0.1 0.3 0 0.6-0.2 0.7 0 0.1-0.1 0.1-0.2 0.1z"></path>
<path d="M19.8 5.4c0 2.1-1.7 3.8-3.8 3.8s-3.8-1.7-3.8-3.8 1.7-2.3 3.8-2.3 3.8 0.2 3.8 2.3z"></path>
<path d="M9.7 21c-0.5 0-1-0.3-1.3-0.8-0.5-0.7-0.2-1.7 0.5-2.2 0.3-0.2 0.6-0.1 0.7 0.2 0.2 0.3 0.1 0.6-0.2 0.7-0.1 0.1-0.2 0.2-0.2 0.3s0 0.3 0.1 0.4c0.1 0.2 0.5 0.3 0.7 0.2 0.3-0.2 0.6-0.1 0.7 0.2 0.2 0.3 0.1 0.6-0.2 0.7-0.2 0.2-0.5 0.3-0.8 0.3z"></path>
<path d="M22.3 21c-0.3 0-0.6-0.1-0.8-0.2-0.3-0.2-0.3-0.5-0.2-0.7 0.2-0.3 0.5-0.3 0.7-0.2s0.5 0.1 0.7-0.2c0.1-0.1 0.1-0.3 0.1-0.4s-0.1-0.2-0.2-0.3c-0.3-0.2-0.3-0.5-0.2-0.7 0.2-0.3 0.5-0.3 0.7-0.2 0.4 0.2 0.6 0.6 0.7 1s0 0.8-0.2 1.2c-0.2 0.4-0.8 0.7-1.3 0.7z"></path>
<path d="M13.825 29.21l2.544-3.215 0.863 0.683-2.544 3.215-0.863-0.683z"></path>
<path d="M17.7 21.6c0 0.11-0.090 0.2-0.2 0.2s-0.2-0.090-0.2-0.2c0-0.11 0.090-0.2 0.2-0.2s0.2 0.090 0.2 0.2z"></path>
<path d="M16 6.2c-0.8 0-1.6 0.2-2.3 0.4 0 0 0 0 0 0s0 0.1-0.1 0.1c-2.4 1-4.1 3.3-4.1 6.1v3.8c0 1.3 0.4 2.4 1 3.4 0-0.2 0-0.4 0-0.5v-1.1c0-1.7 0.4-3.4 1.1-4.9l0.7-1.5c0.2 0.6 0.5 1.2 1 1.7 0.8 0.9 1.7 1.4 2.8 1.6-0.7-0.3-1.3-0.7-1.9-1.3-0.6-0.7-0.9-1.4-1.1-2.3 2.1 2.2 5.1 3.5 8.2 3.5h0.4v0.5c0 0.1 0 0.1 0 0.2 0 0 0 0 0 0v3.7c0 0.2 0 0.4 0 0.5 0.6-1 1-2.2 1-3.4v-3.8c-0.1-3.8-3.1-6.7-6.7-6.7zM10.4 11.1v0 0 0zM21.6 11.1v0 0 0z"></path>
</symbol>
<symbol id="icon-male" viewBox="0 0 32 32">
<path fill="#1a2330" style="fill: var(--color3, #1a2330)" opacity="0.2" d="M10.4 15l0.4-1.1c0.7-2 2.6-3.4 4.7-3.5v0 0c0 0.9 0.9 1.6 1.8 1.3v0c1.7 0.1 3.2 1.1 3.9 2.6l0.3 0.7 0.3-2-1.3-2.6-3.8-1.8-3.7 0.6-2.5 3.2-0.6 2.6h0.5z"></path>
<path fill="#1a2330" style="fill: var(--color3, #1a2330)" opacity="0.2" d="M18.7 20.7c-0.2 0-0.3 0-0.5 0-1.4-0.3-2.9-0.3-4.3 0-0.1 0-0.3 0-0.5 0-1.7 0-3.1-1.7-3.6-4.1v2.5c0 2.9 2.7 5.3 6.1 5.3v0c3.4 0 6.1-2.4 6.1-5.3v-1.8c-0.5 2-1.8 3.4-3.3 3.4z"></path>
<path fill="#1a2330" style="fill: var(--color3, #1a2330)" d="M16 25c-3.7 0-6.6-3-6.6-6.6v-3.5c0-3.7 3-6.6 6.6-6.6s6.6 3 6.6 6.6v3.5c0 3.6-2.9 6.6-6.6 6.6zM16 9.2c-3.1 0-5.6 2.5-5.6 5.6v3.5c0 3.1 2.5 5.6 5.6 5.6s5.6-2.5 5.6-5.6v-3.5c0-3.1-2.5-5.6-5.6-5.6z"></path>
<path fill="#1a2330" style="fill: var(--color3, #1a2330)" d="M9.6 19.9c-0.8 0-1.6-0.7-2-1.7-0.4-1.2-0.1-2.5 0.8-2.8 0.5-0.2 1.2 0 1.7 0.5l-0.7 0.8c-0.2-0.2-0.4-0.3-0.6-0.2-0.3 0.1-0.4 0.8-0.2 1.4 0.2 0.7 0.8 1.1 1.1 1l0.4 1c-0.2-0.1-0.4 0-0.5 0z"></path>
<path fill="#1a2330" style="fill: var(--color3, #1a2330)" d="M22.4 19.9c-0.2 0-0.3 0-0.5-0.1l0.4-1c0.3 0.1 0.8-0.3 1.1-1 0.2-0.7 0.1-1.3-0.2-1.4-0.2-0.1-0.4 0-0.6 0.2l-0.7-0.8c0.5-0.5 1.1-0.7 1.7-0.5 0.9 0.3 1.3 1.6 0.8 2.8-0.4 1.1-1.2 1.8-2 1.8z"></path>
<path fill="#1a2330" style="fill: var(--color3, #1a2330)" d="M15.8 21.2c-0.6 0-1.3-0.3-1.6-0.9-0.2-0.3-0.1-0.6 0.2-0.7 0.3-0.2 0.6-0.1 0.7 0.2 0.2 0.4 0.8 0.5 1.2 0.3 0.3-0.2 0.6-0.1 0.7 0.2 0.2 0.3 0.1 0.6-0.2 0.7s-0.7 0.2-1 0.2z"></path>
<path fill="#1a2330" style="fill: var(--color3, #1a2330)" d="M20.5 23.9c0 0 0 0 0 0-0.7-0.3-1.3-0.4-1.9-0.2v0c-1.7 0.5-3.5 0.5-5.1 0v0c-0.6-0.2-1.3-0.2-1.8 0.1v0c-1.6 0.7-2.7 1.7-2.7 2.9 0 2 3.2 3.7 7.1 3.7s7.1-1.7 7.1-3.7c-0.1-1.1-1.1-2.1-2.7-2.8z"></path>
<path fill="#1a2330" style="fill: var(--color3, #1a2330)" d="M9.7 21.9c-0.5 0-1-0.3-1.3-0.8-0.5-0.7-0.2-1.7 0.5-2.2 0.3-0.2 0.6-0.1 0.7 0.2 0.2 0.3 0.1 0.6-0.2 0.7-0.2 0.1-0.3 0.5-0.2 0.7s0.5 0.3 0.7 0.2c0.3-0.2 0.6-0.1 0.7 0.2 0.2 0.3 0.1 0.6-0.2 0.7-0.1 0.2-0.4 0.3-0.7 0.3z"></path>
<path fill="#1a2330" style="fill: var(--color3, #1a2330)" d="M20.4 16.2h-8.8c-0.4 0-0.8 0.4-0.7 0.8l0.1 1.8c0 0.4 0.3 0.7 0.7 0.7h1.6c0.9 0 1.6-0.6 1.7-1.5 0.1-0.4 0.5-0.8 0.9-0.8 0.5 0 0.8 0.3 0.9 0.8 0.1 0.8 0.9 1.5 1.7 1.5h1.6c0.4 0 0.7-0.3 0.7-0.7l0.1-1.8c0.2-0.4-0.1-0.8-0.5-0.8zM13.2 16.9c-0.5 0.1-0.9 0.6-0.8 1.1v0c0 0.3-0.2 0.5-0.5 0.5-0.2 0-0.4-0.2-0.5-0.4v-0.1c0-0.6 0.4-1.1 1-1.1h0.8zM19.4 16.9c-0.5 0.1-0.9 0.6-0.8 1.1v0c0 0.3-0.2 0.5-0.5 0.5-0.2 0-0.4-0.2-0.5-0.4v-0.1c0-0.6 0.4-1.1 1-1.1h0.8z"></path>
<path fill="#1a2330" style="fill: var(--color3, #1a2330)" d="M16.5 21.8h-1c-0.3 0-0.4 0.3-0.3 0.5l0.5 0.7c0.1 0.2 0.4 0.2 0.5 0l0.5-0.7c0.2-0.2 0.1-0.5-0.2-0.5z"></path>
</symbol>
<symbol id="icon-video" viewBox="0 0 32 32">
<path d="M12 9c0-2.761 2.239-5 5-5s5 2.239 5 5c0 2.761-2.239 5-5 5s-5-2.239-5-5zM0 9c0-2.761 2.239-5 5-5s5 2.239 5 5c0 2.761-2.239 5-5 5s-5-2.239-5-5zM24 19v-3c0-1.1-0.9-2-2-2h-20c-1.1 0-2 0.9-2 2v10c0 1.1 0.9 2 2 2h20c1.1 0 2-0.9 2-2v-3l8 5v-14l-8 5zM20 24h-16v-6h16v6z"></path>
</symbol>
</defs>
</svg>
